<svg width="81" height="81" viewBox="0 0 81 81" fill="none" xmlns="http://www.w3.org/2000/svg">
<path d="M77 36.2703L41.2157 63L4 36.2703L16.8824 17H64.5948L77 36.2703Z" stroke="#4658FF" stroke-width="5" stroke-linejoin="round"/>
<g clip-path="url(#clip0_1_8)">
<path d="M51.5002 50.47C51.648 50.3608 51.771 50.2036 51.8566 50.014C51.9423 49.8244 51.9877 49.6092 51.9882 49.39L52.0057 42.1562C52.0063 41.937 52.0516 41.7218 52.1373 41.5323C52.223 41.3427 52.3459 41.1854 52.4938 41.0762L55.5436 38.8237C55.6915 38.7146 55.859 38.6574 56.0294 38.6577C56.1999 38.6581 56.3673 38.7161 56.5148 38.8259C56.6623 38.9356 56.7848 39.0934 56.87 39.2832C56.9552 39.473 57 39.6883 57 39.9075V53.0588C57 53.2786 56.9549 53.4946 56.8692 53.6849C56.7835 53.8752 56.6603 54.033 56.512 54.1425L45.0018 62.6425C44.8548 62.751 44.6883 62.8082 44.5188 62.8084C44.3492 62.8087 44.1826 62.7519 44.0354 62.6438L35.0025 56.0012C34.8537 55.892 34.73 55.7341 34.644 55.5435C34.5579 55.353 34.5126 55.1366 34.5125 54.9163V48.285C34.5125 48.2775 34.5193 48.2725 34.5252 48.2763C34.53 48.28 34.5368 48.2763 34.5368 48.2675V48.26C34.5368 48.255 34.5388 48.25 34.5427 48.2475L41.9821 42.7525C41.9889 42.7475 41.986 42.7337 41.9782 42.7337C41.9762 42.7337 41.9742 42.7327 41.9727 42.7308C41.9713 42.7289 41.9704 42.7264 41.9704 42.7237L41.985 36.2225C41.9857 36.0027 41.9413 35.7865 41.8562 35.5958C41.7712 35.405 41.6485 35.2465 41.5006 35.1362C41.3527 35.0259 41.1848 34.9677 41.0138 34.9675C40.8428 34.9673 40.6748 35.0251 40.5267 35.135L34.9977 39.2312C34.8501 39.3405 34.6828 39.398 34.5125 39.398C34.3422 39.398 34.175 39.3405 34.0274 39.2312L28.4809 35.125C28.3331 35.0156 28.1655 34.9581 27.995 34.9582C27.8245 34.9584 27.657 35.0162 27.5094 35.1259C27.3617 35.2356 27.2391 35.3932 27.1538 35.5831C27.0686 35.7729 27.0236 35.9883 27.0235 36.2075V47.9575C27.0236 48.1765 26.979 48.3917 26.8941 48.5815C26.8091 48.7714 26.6869 48.9292 26.5396 49.0392C26.3923 49.1492 26.2251 49.2075 26.0548 49.2083C25.8845 49.2091 25.717 49.1524 25.5691 49.0437L22.491 46.7812C22.3419 46.6718 22.218 46.5135 22.132 46.3224C22.0459 46.1314 22.0007 45.9145 22.001 45.6938L22.0282 25.1562C22.0286 24.9373 22.0737 24.7223 22.159 24.5328C22.2443 24.3433 22.3668 24.186 22.5143 24.0765C22.6617 23.967 22.829 23.9092 22.9993 23.909C23.1696 23.9087 23.3369 23.966 23.4846 24.075L34.0284 31.8612C34.1757 31.97 34.3426 32.0273 34.5125 32.0273C34.6824 32.0273 34.8494 31.97 34.9967 31.8612L45.5375 24.075C45.6854 23.9658 45.853 23.9085 46.0236 23.909C46.1941 23.9094 46.3616 23.9675 46.5091 24.0774C46.6567 24.1873 46.7792 24.3452 46.8642 24.5353C46.9493 24.7253 46.9941 24.9407 46.9939 25.16V45.7025C46.994 45.9223 46.949 46.1381 46.8635 46.3284C46.778 46.5187 46.655 46.6766 46.5068 46.7862L40.9866 50.8737C40.8383 50.9836 40.7152 51.1419 40.6297 51.3326C40.5443 51.5232 40.4995 51.7395 40.4999 51.9596C40.5003 52.1796 40.5459 52.3956 40.632 52.5858C40.7181 52.7759 40.8418 52.9335 40.9904 53.0425L44.0354 55.2712C44.1826 55.379 44.3491 55.4354 44.5184 55.435C44.6877 55.4345 44.854 55.3772 45.0009 55.2688L51.5002 50.47ZM52.1389 32.0425C52.1391 32.2636 52.1848 32.4806 52.2714 32.6715C52.3581 32.8625 52.4826 33.0204 52.6322 33.1293C52.7818 33.2382 52.9513 33.2942 53.1232 33.2914C53.2951 33.2887 53.4634 33.2274 53.6109 33.1137L56.5275 30.8637C56.6715 30.7528 56.7907 30.5959 56.8735 30.4081C56.9563 30.2204 56.9999 30.0083 57 29.7925V25.2075C56.9997 24.9865 56.9539 24.7696 56.8671 24.5789C56.7804 24.3881 56.6559 24.2304 56.5063 24.1216C56.3567 24.0129 56.1874 23.957 56.0155 23.9598C55.8437 23.9626 55.6755 24.0239 55.5281 24.1375L52.6114 26.3875C52.4674 26.4984 52.3482 26.6554 52.2654 26.8431C52.1826 27.0308 52.139 27.2429 52.1389 27.4587V32.0425Z" fill="#4658FF"/>
</g>
<defs>
<clipPath id="clip0_1_8">
<rect width="35" height="40" fill="white" transform="translate(22 23)"/>
</clipPath>
</defs>
</svg>
